Patient4_TMGait_0pt5_02_left_29_EMG.mot
version=1
nRows=16
nColumns=33
inDegrees=no
endheader
time	1LAddLong	2LGlutMax	3LGlutMed	4LIliopsoas	5LSemiMemb	6LBicFemLong	7LRecFem	8LVastMed	9LVastLat	10LGasMed	11LTibAnt	12lTibPost	13LPeroneusLong	14LSol	15LExtDigLong	16LFlexDigLong	17RAddLong	18RGlutMax	19RGlutMed	20RIliopsoas	21RSemiMemb	22RBicFemLong	23RRecFem	24RVastMed	25RVastLat	26RGasMed	27RTibAnt	28RTibPost	29RPeroneusLong	30RSol	31RExtDigLong	32RFlexDigLong
37.632	0.034637	1.1398	-0.012512	0.019379	0.020447	0.13397	-0.28091	-0.001068	0.053711	-0.040131	-0.005951	0.020905	0.21698	-0.062103	0.23743	-0.11917	-0.024567	-0.58029	-0.31342	-0.050507	-0.06958	0.15289	0.3772	-0.082245	0.017242	-0.001221	0.015564	-0.005035	-0.10284	0.012512	-0.000916	-0.004883
37.633	0.039978	1.1624	-0.00351	-0.005493	0.019836	-0.009155	-0.31372	-0.005646	0.094757	-0.078583	-0.009003	-0.02182	0.11581	0.09079	0.23773	0.00946	-0.04364	-0.64346	-0.3122	-0.15915	0.019836	0.14786	0.3096	0.004883	0.015564	0.001678	0.022278	-0.005188	-0.16388	-0.015869	-0.001678	0.005188
37.634	0.044556	1.1478	-0.053864	0.009308	0.12558	-0.091248	-0.34393	-0.009308	0.00885	0.049744	-0.012054	0.015106	0.022736	0.2713	0.12665	0.26535	-0.077972	-0.73364	-0.37003	-0.095673	0.076904	0.16815	0.30136	-0.031738	-0.012207	-0.002136	0.019531	0.005035	-0.16953	0.026703	-0.001221	-0.001526
37.635	0.033569	1.0481	-0.049591	0.026703	0.14221	-0.036163	-0.345	-0.001068	-0.15076	0.19928	-0.009613	0.010071	-0.037689	0.22903	-0.002441	-0.003357	-0.090485	-0.79605	-0.41611	0.005951	0.049896	0.19455	0.34683	-0.037231	0.002136	-0.007935	0.017853	-0.003204	-0.14053	0.14999	-0.002594	0.003357
37.636	0.01709	1.0234	0.020294	0.014038	0.092163	-0.017548	-0.34378	0.001984	-0.2066	-0.05188	-0.006866	0.010223	-0.007019	0.14648	-0.03418	-0.15503	-0.055847	-0.87112	-0.35217	-0.088348	0.036469	0.19257	0.34653	-0.031891	-0.015106	-0.003357	0.017395	-0.002136	-0.086975	0.14603	-0.001526	-0.002136
37.637	0.000153	0.94116	0.11826	0.020599	-0.00473	-0.043335	-0.31784	-0.007782	-0.14923	-0.56625	0.010071	0.010529	0.061493	0.058899	-0.069122	-0.05661	0.019073	-0.98724	-0.28488	-0.090942	0.043488	0.22705	0.38177	-0.03006	0.001373	-0.002289	0.009766	-0.002594	0.041962	0.14313	-0.000916	-0.003052
37.638	-0.00824	0.85754	0.22247	0.003967	-0.10239	-0.019684	-0.3157	0.00824	-0.13275	-0.47028	0.031281	0.008087	-0.019073	-0.093842	-0.059509	-0.018768	0.096741	-1.0106	-0.27954	0.004578	0.064392	0.26184	0.37766	-0.039368	0.004578	0.009003	0.029755	-0.005341	0.11719	0.082855	-0.001221	-0.001984
37.639	0.000153	0.78476	0.12329	0.011902	-0.10284	-0.077209	-0.32089	-0.001678	-0.088959	-0.10346	0.025024	-0.001526	-0.062103	-0.092773	0.009155	-0.010223	0.1207	-1.0266	-0.26901	0.070496	0.027161	0.23621	0.3479	-0.072784	-0.036011	-0.006714	0.062256	-0.009155	0.035553	0.03418	-0.002136	-0.008087
37.64	0.000458	0.75348	0.097046	-0.009003	0.03067	-0.112	-0.33157	0.000153	-0.019226	-0.015717	0.029755	-0.002899	-0.034485	-0.048523	0.090485	0.001984	0.12253	-1.0265	-0.40283	0.04715	-0.017242	0.18814	0.28091	-0.069122	0.007172	-0.010681	0.051575	-0.006866	-0.14572	0.015869	-0.00412	-0.013275
37.641	-0.003052	0.60547	0.035858	0.004883	0.06546	-0.016632	-0.32059	0.002899	-0.088806	0.007935	0.01236	-0.006866	0.06134	-0.072021	0.11856	-0.002747	0.084839	-1.1104	-0.32562	0.027466	-0.023499	0.15213	0.30472	-0.016327	0.000763	0.005493	0.035248	-0.007782	-0.22171	-0.029144	-0.003357	-0.012207
37.642	-0.000458	0.51346	0.021057	-0.014648	0.087433	-0.087585	-0.32211	0.003052	-0.049591	-0.031586	0.00473	-0.024109	0.021362	0.054626	0.12573	-0.001831	0.07019	-1.1198	-0.31357	0.046234	-0.021362	0.13611	0.2861	-0.012512	0.015869	0.009308	0.011597	-0.009308	-0.20615	-0.088654	-0.005341	-0.003662
37.643	0.003967	0.37476	-0.036926	-0.000458	0.090942	-0.41946	-0.34256	-0.00473	0.020447	-0.028839	0.013123	-0.033569	-0.032959	0.26855	0.13489	-0.021362	0.034637	-1.1931	-0.25421	0.041656	-0.021362	0.13397	0.30914	-0.038452	0.010986	0.010223	-0.000916	-0.009003	-0.12741	-0.066376	-0.005493	-0.003357
37.644	0.009766	0.25742	-0.042725	-0.003357	0.052795	-0.1535	-0.32394	-0.001984	-0.00351	0.017853	0.00351	-0.033722	0.027771	0.25391	0.081482	-0.014648	0.006409	-1.2061	-0.22614	0.038757	-0.030823	0.14771	0.31357	-0.030518	0.00061	0.007477	-0.012512	-0.009918	0.014496	-0.044708	-0.000305	-0.006866
37.645	0.007629	0.20615	0.067596	0.016479	-0.015869	0.18753	-0.32989	-0.005493	-0.011292	-0.059662	-0.006866	-0.026855	0.031433	0.16754	-0.003052	-0.005035	-0.019073	-1.2679	-0.2562	0.058136	-0.028992	0.15686	0.31113	0.010834	0.001373	0.018921	-0.007782	-0.013275	0.088806	-0.071716	-0.007935	-0.002289
37.646	0.013885	0.1329	-0.085144	0.022583	-0.063019	0.45807	-0.32394	-0.007782	0.017548	-0.14221	-0.006256	-0.016327	0.103	0.09613	-0.03067	-0.007172	-0.007477	-1.3084	-0.31616	0.07309	0.004272	0.18555	0.36606	-0.039673	0.012817	0.014954	0	-0.015106	0.095215	-0.089569	-0.003815	-0.001984
37.647	0.012512	0.047607	-0.11871	0.005035	0.001373	0.61005	-0.28671	-0.006866	0.037994	-0.097351	0.020294	-0.005951	0.18402	0.16678	-0.034027	-0.002899	0.026245	-1.3278	-0.25681	0.035248	0.00946	0.1886	0.31067	0.003357	0.00885	0.006409	0.015106	-0.007629	-0.002289	-0.099487	-0.003052	-0.013428
